<svg width="12" height="16" viewBox="0 0 12 16" fill="none" xmlns="http://www.w3.org/2000/svg">
<path d="M10.8974 11.5347L9.53215 9.60307V5.82924C9.53215 3.9031 8.10655 2.30385 6.25511 2.03071V1.17828C6.25511 0.867431 6.00309 0.615417 5.69227 0.615417C5.38143 0.615417 5.12941 0.867431 5.12941 1.17828V2.03068C3.27797 2.30382 1.85234 3.90307 1.85234 5.82921V9.60307L0.487165 11.5347C0.224365 11.9065 0.490501 12.4224 0.946781 12.4224H10.4378C10.8931 12.4224 11.1608 11.9073 10.8974 11.5347Z" fill='var(--background)'/>
<path d="M5.6922 12.8243C4.81666 12.8243 4.10437 13.5365 4.10437 14.4121C4.10437 15.2876 4.81669 16 5.6922 16C6.56774 16 7.28 15.2877 7.28 14.4121C7.28 13.5366 6.56771 12.8243 5.6922 12.8243Z" fill='var(--background)'/>
</svg>
