

<svg width="42" height="42" viewBox="0 0 42 42" fill="none" xmlns="http://www.w3.org/2000/svg">
<path d="M18.2564 17.5072L10.0558 4.85532C9.88839 4.5967 9.61998 4.41187 9.32001 4.34787C9.01873 4.28314 8.69815 4.34217 8.43924 4.50991L5.98688 6.09962C5.44612 6.45029 5.29124 7.17545 5.64191 7.71621L12.4002 18.143L5.64191 28.5689C5.47198 28.8311 5.41427 29.1437 5.47958 29.4486C5.54387 29.7497 5.7287 30.0181 5.98703 30.1854L8.43924 31.775C8.62904 31.898 8.84894 31.9631 9.07513 31.9631C9.15739 31.9631 9.23965 31.9544 9.31899 31.9373C9.61998 31.8732 9.88854 31.6882 10.056 31.4299L18.2564 18.7786C18.507 18.3925 18.507 17.8934 18.2564 17.5072Z" fill="var(--accent_2)" />
<path d="M36.5199 2.50584C36.4538 2.20075 36.2733 1.93936 36.0108 1.77016L33.5547 0.186294C33.3655 0.0644358 33.1466 0 32.922 0C32.5228 0 32.1552 0.200029 31.9388 0.535358L15.0658 26.6992C14.8179 27.0842 14.8179 27.5813 15.0658 27.9663L23.7711 41.4646C23.9874 41.8 24.355 42 24.7543 42C24.9787 42 25.1976 41.9356 25.3871 41.8134L27.8431 40.2295C28.1054 40.0604 28.2861 39.7992 28.3522 39.4936C28.4179 39.1885 28.3611 38.876 28.1919 38.6138L20.9164 27.3329L36.3595 3.38631C36.5288 3.12404 36.5856 2.8115 36.5199 2.50584Z" fill="var(--accent_1)"/>
</svg>
