<svg width="15" height="15" viewBox="0 0 15 15" fill="none" xmlns="http://www.w3.org/2000/svg">
<path d="M9.51807 8.48399C10.2504 8.48399 10.8461 7.8013 10.8461 6.96222V2.35523C10.8461 1.51609 10.2504 0.833313 9.51807 0.833313H2.1612C1.42902 0.833313 0.833374 1.51609 0.833374 2.35523V6.96222C0.833374 7.8013 1.42902 8.48399 2.1612 8.48399H3.12759V10.0769C3.12759 10.2706 3.2294 10.4452 3.38552 10.5193C3.43727 10.5438 3.49155 10.5557 3.54532 10.5557C3.65404 10.5557 3.76095 10.507 3.84089 10.4154L5.52609 8.48399H9.51807Z" fill='var(--background)'/>
<path d="M13.0042 6.03796H12.3323V8.18279C12.3323 9.44429 11.4367 10.4705 10.3358 10.4705H6.62074L5.8396 11.3659C5.93374 11.993 6.41131 12.4718 6.985 12.4718H10.2197L11.5762 14.0264C11.6561 14.118 11.7631 14.1667 11.8718 14.1667C11.9256 14.1667 11.9799 14.1547 12.0316 14.1302C12.1877 14.0561 12.2895 13.8815 12.2895 13.6879V12.4717H13.0042C13.6452 12.4717 14.1667 11.874 14.1667 11.1394V7.37006C14.1666 6.63557 13.6452 6.03796 13.0042 6.03796Z" fill='var(--background)'/>
</svg>
