<svg width="30" height="26" viewBox="0 0 30 26" fill="none" xmlns="http://www.w3.org/2000/svg">
<path d="M28.9927 1.20194L29 1.26902V21.1533L28.9965 21.1694C28.9845 21.2246 28.895 21.356 28.6855 21.356H11.5508H11.1594L10.872 21.6216L7.51007 24.7291L7.43839 24.7953L7.38087 24.8742C7.33688 24.9345 7.23974 25 7.0987 25C6.98652 25 6.90043 24.9584 6.84785 24.9098C6.79663 24.8625 6.78416 24.8179 6.78416 24.785V22.3563V21.3563H5.78416H1.4184L1.30424 21.3534C1.09744 21.3482 1.01445 21.2199 1.0035 21.1697L1 21.1537V1.26936L1.00739 1.20138C1.01315 1.14841 1.08668 1.00845 1.30378 1.00292L1.41827 1H28.6855C28.9061 1 28.9863 1.14396 28.9927 1.20194Z" stroke-width="2"/>
</svg>
