<svg width="28" height="26" viewBox="0 0 28 26" fill="none" xmlns="http://www.w3.org/2000/svg">
<path d="M26.2316 7.84121L26.2345 7.87425L26.2396 7.90702C26.253 7.99331 26.3816 8.90833 26.0208 10.4739L26.0208 10.4742C25.502 12.7288 24.3027 14.7866 22.5414 16.4245L13.5605 24.6395L4.73448 16.427L4.73392 16.4265C2.97118 14.7888 1.77093 12.7295 1.25186 10.4742L1.25182 10.474C0.890909 8.9072 1.01987 7.99286 1.03317 7.90903L1.03857 7.87494L1.04162 7.84055C1.40488 3.73549 4.1827 1 7.42587 1C9.58071 1 11.5344 2.17779 12.6923 4.20923L13.5515 5.71687L14.4251 4.21745C15.5895 2.21886 17.6386 1.00054 19.8468 1.00054C23.0904 1.00054 25.8678 3.73599 26.2316 7.84121Z" stroke-width="2"/>
</svg>
