<svg width="24" height="24" viewBox="0 0 24 24" fill="none" xmlns="http://www.w3.org/2000/svg">
<path d="M18.4288 3.91117H8.18305L9.0416 1.63123C9.22423 1.14471 9.09064 0.588405 8.71347 0.259692C8.33581 -0.0688074 7.80436 -0.0870278 7.40709 0.212863L0.469492 5.44781C0.165589 5.67711 -0.0108588 6.0582 0.000518573 6.45979C0.0118469 6.86112 0.20948 7.22942 0.525741 7.43788L7.78004 12.2233C8.19281 12.4954 8.72063 12.4414 9.07868 12.0902C9.43726 11.739 9.54098 11.1678 9.33462 10.6942L8.38113 8.50287H18.4288C19.1703 8.50287 19.7734 9.17074 19.7734 9.97616V17.9597C19.7734 18.7651 19.1703 19.4083 18.4288 19.4083H7.3094C6.31751 19.4083 5.51339 20.2818 5.51339 21.3593V22.0488C5.51339 23.1265 6.31751 24 7.3094 24H18.4288C21.5008 24 24 21.2972 24 17.9596V9.97622C24.0001 6.63864 21.5008 3.91117 18.4288 3.91117Z" fill="var(--accent_2)"/>
</svg>
