<svg width="24" height="26" viewBox="0 0 24 26" fill="none" xmlns="http://www.w3.org/2000/svg">
<path d="M15.4691 6.49763L16.1062 6.09136L15.8894 5.36751C15.794 5.04915 15.7421 4.70942 15.7421 4.35548C15.7421 2.46405 17.205 1 18.9095 1C20.614 1 22.0769 2.46408 22.0769 4.3554C22.0769 6.24675 20.614 7.71088 18.9095 7.71088C18.0712 7.71088 17.3012 7.36309 16.7252 6.78062L16.1573 6.2065L15.4765 6.64065L6.88831 12.117L6.24359 12.5281L6.47136 13.258C6.563 13.5517 6.61325 13.8649 6.61325 14.191C6.61325 14.66 6.51091 15.1009 6.33042 15.4927L5.95459 16.3085L6.7255 16.7694L13.2801 20.6884L13.9568 21.093L14.5081 20.5294C14.9547 20.0728 15.5514 19.8026 16.1992 19.8026C17.5044 19.8026 18.6425 20.9271 18.6425 22.4012C18.6425 23.8754 17.5044 25 16.1992 25C14.894 25 13.7558 23.8754 13.7558 22.4012C13.7558 22.233 13.7717 22.0673 13.8014 21.9045L13.9261 21.2223L13.3309 20.8665L6.35231 16.694L5.81168 16.3707L5.28665 16.7187C4.85341 17.0059 4.34724 17.1693 3.80666 17.1693C2.30111 17.1693 1 15.8744 1 14.1909C1 12.5074 2.30105 11.2125 3.80666 11.2125C4.48836 11.2125 5.11845 11.4724 5.61315 11.9156L6.17831 12.422L6.81812 12.014L15.4691 6.49763Z" stroke-width="2"/>
</svg>
